<?xml version="1.0" encoding="UTF-8" standalone="no"?>
<svg
   xmlns:dc="http://purl.org/dc/elements/1.1/"
   xmlns:cc="http://creativecommons.org/ns#"
   xmlns:rdf="http://www.w3.org/1999/02/22-rdf-syntax-ns#"
   xmlns:svg="http://www.w3.org/2000/svg"
   xmlns="http://www.w3.org/2000/svg"
   viewBox="0 0 1152 1152"
   height="1152"
   width="1152"
   xml:space="preserve"
   version="1.1"
   id="svg2"><metadata
     id="metadata8"><rdf:RDF><cc:Work
         rdf:about=""><dc:format>image/svg+xml</dc:format><dc:type
           rdf:resource="http://purl.org/dc/dcmitype/StillImage" /></cc:Work></rdf:RDF></metadata><defs
     id="defs6"><clipPath
       id="clipPath16"
       clipPathUnits="userSpaceOnUse"><path
         id="path18"
         d="M 0,864 864,864 864,0 0,0 0,864 Z" /></clipPath></defs><g
     transform="matrix(1.3333333,0,0,-1.3333333,0,1152)"
     id="g10"><g
       id="g12"><g
         clip-path="url(#clipPath16)"
         id="g14"><g
           transform="translate(418.748,31.1182)"
           id="g20"><path
             id="path22"
             style="fill:#373535;fill-opacity:1;fill-rule:evenodd;stroke:none"
             d="M 0,0 C -5.813,0.524 -11.633,1.162 -17.452,1.586 -70.063,5.42 -120.04,19.069 -167.156,42.671 -240.01,79.13 -297.192,132.64 -338.258,203.009 c -8.679,14.873 -15.523,30.813 -23.315,46.205 -1.711,3.378 -1.717,6.456 -0.581,10.09 15.111,48.129 30.096,96.294 45.069,144.46 13.53,43.507 27.011,87.04 40.523,130.553 0.562,1.843 1.199,3.641 1.923,5.788 10.04,0 20.068,0.125 30.083,-0.162 1.161,-0.037 2.798,-2.172 3.297,-3.646 10.29,-30.421 20.443,-60.916 30.614,-91.399 11.782,-35.265 23.571,-70.506 35.303,-105.778 1.336,-4.015 2.398,-8.117 3.615,-12.251 23.602,71.125 47.154,142.062 70.781,213.224 10.24,0 20.28,0.137 30.308,-0.162 1.112,-0.025 2.704,-2.223 3.172,-3.715 5.882,-18.407 11.589,-36.864 17.34,-55.315 20.886,-67.023 41.772,-134.045 62.657,-201.06 0.425,-1.381 0.787,-2.779 1.212,-4.327 -10.472,0 -20.605,-0.388 -30.683,0.162 -5.382,0.3 -8.198,4.533 -9.715,9.64 -8.455,28.573 -17.034,57.107 -25.538,85.661 -9.603,32.225 -19.256,64.437 -28.71,96.711 -1.86,6.32 -2.934,12.863 -4.152,18.308 -22.347,-66.529 -44.912,-133.758 -67.503,-200.967 -2.285,-6.812 -5.857,-9.528 -13,-9.977 -0.15,-0.026 -0.299,-0.026 -0.443,-0.026 -13.593,0.037 -18.757,-1.723 -24.957,17.127 -19.344,58.687 -39.486,117.111 -59.192,175.68 -2.161,6.375 -3.547,13.03 -5.17,19.137 -4.54,-15.86 -9.029,-32.056 -13.799,-48.166 -17.833,-60.247 -35.735,-120.47 -53.723,-180.661 -0.968,-3.235 -0.712,-5.864 0.762,-8.835 55.371,-110.954 142.929,-181.929 264.86,-205.463 124.741,-24.102 235.053,9.141 327.9,96.106 58.368,54.653 93.771,122.581 108.469,201.186 4.197,22.39 6.07,45.038 5.882,67.859 -0.031,3.621 0.537,7.368 1.549,10.839 7.292,25.063 14.773,50.077 22.209,75.102 0.368,1.236 0.85,2.435 2.217,3.722 1.249,-6.095 2.734,-12.151 3.722,-18.307 C 436.069,346.943 402.576,229.233 311.166,129.543 250.044,62.87 173.574,22.379 84.474,6.531 66.653,3.372 48.409,2.636 30.364,0.725 29.39,0.625 28.44,0.25 27.479,0 L 0,0 Z" /></g><g
           transform="translate(455.9805,845.9438)"
           id="g24"><path
             id="path26"
             style="fill:#373535;fill-opacity:1;fill-rule:evenodd;stroke:none"
             d="m 0,0 c 7.567,-0.831 15.135,-1.698 22.703,-2.516 45.006,-4.914 87.914,-17.24 128.787,-36.658 43.22,-20.555 81.639,-47.935 115.225,-82.033 36.902,-37.451 65.549,-80.447 85.792,-128.987 0.899,-2.148 0.649,-5.201 -0.063,-7.542 -17.888,-58.213 -35.909,-116.387 -53.91,-174.574 -10.59,-34.235 -21.242,-68.44 -31.681,-102.706 -1.149,-3.74 -2.736,-5.096 -6.738,-4.896 -7.511,0.374 -15.072,0.35 -22.596,0 -3.709,-0.174 -5.033,1.237 -6.132,4.558 -18.244,55.321 -36.62,110.593 -54.971,165.864 -4.658,14.061 -9.316,28.11 -14.149,42.696 -2.536,-7.868 -4.833,-15.248 -7.281,-22.566 -20.623,-61.84 -41.322,-123.667 -61.808,-185.557 -1.33,-4.008 -3.115,-5.176 -7.15,-4.982 -7.217,0.337 -14.485,0.35 -21.71,-0.013 -3.939,-0.181 -5.588,1.075 -6.761,4.87 -14.349,46.493 -28.885,92.948 -43.383,139.39 -12.027,38.575 -24.077,77.143 -36.109,115.718 -0.468,1.524 -0.849,3.079 -1.361,4.927 11.271,0 22.172,0.431 33.012,-0.187 5.582,-0.313 8.167,-5.058 9.69,-10.253 7.524,-25.594 15.185,-51.181 22.753,-76.769 10.889,-36.777 21.773,-73.541 32.562,-110.336 1.392,-4.745 2.217,-9.678 3.14,-13.762 21.329,67.272 45.094,134.207 67.56,201.579 2.272,6.793 6.381,9.79 13.462,10.003 2.51,0.087 5.019,0.037 7.536,0.024 9.191,-0.062 12.394,-2.334 15.304,-11.001 6.962,-20.68 13.881,-41.385 20.83,-62.065 13.587,-40.398 27.211,-80.784 40.728,-121.194 1.906,-5.701 3.341,-11.552 4.708,-16.334 6.157,21.204 12.407,43.182 18.913,65.074 15.823,53.298 31.744,106.571 47.704,159.819 0.893,3.01 0.849,5.52 -0.568,8.417 -54.453,111.804 -141.706,183.634 -263.762,208.116 -125.078,25.082 -236.095,-7.687 -329.523,-94.702 -61.546,-57.344 -98.154,-128.912 -110.823,-212.205 -2.816,-18.457 -3.01,-37.314 -4.521,-55.989 -0.349,-4.209 -0.668,-8.536 -1.836,-12.563 -7.242,-24.919 -14.717,-49.783 -22.128,-74.659 -0.356,-1.212 -0.812,-2.41 -2.167,-3.646 -1.567,8.18 -3.328,16.34 -4.664,24.551 -3.746,22.927 -5.707,46.03 -5.32,69.257 1.711,101.089 35.228,190.252 102.088,266.154 58.393,66.291 131.179,109.143 217.538,128.1 19.819,4.358 40.249,5.9 60.386,8.766 1.242,0.175 2.466,0.537 3.702,0.812 L 0,0 Z" /></g><g
           transform="translate(492.7695,306.1318)"
           id="g28"><path
             id="path30"
             style="fill:#373535;fill-opacity:1;fill-rule:evenodd;stroke:none"
             d="m 0,0 -29.709,0 c -8.217,0 -10.015,1.23 -12.513,9.391 -25.861,84.456 -51.687,168.923 -77.499,253.391 -0.175,0.543 -0.231,1.124 -0.468,2.322 l 18.213,0 10.634,0 c 8.972,0 11.058,-1.554 13.655,-10.308 7.562,-25.444 14.911,-50.944 22.691,-76.326 C -37.295,120.82 -19.375,63.226 -1.549,5.62 -1.036,3.972 -0.624,2.298 0,0" /></g></g></g></g></svg>